<?xml version="1.0"?>
<svg xmlns="http://www.w3.org/2000/svg" fill="#777" viewBox="0 0 64 64" width="512" height="512"><g id="Cleaning"><path d="M59,54H50V52a3.01,3.01,0,0,0-2-2.82V5a3,3,0,0,0-6,0V49.18A3.01,3.01,0,0,0,40,52v2H33.75l.83-7.74A18.913,18.913,0,0,0,40,33V30a1,1,0,0,0-1-1H36V27a1,1,0,0,0-1-1H7a1,1,0,0,0-1,1v2H3a1,1,0,0,0-1,1v3A18.965,18.965,0,0,0,7.41,46.26l1.6,14.85A1,1,0,0,0,10,62H59a3.009,3.009,0,0,0,3-3V57A3.009,3.009,0,0,0,59,54ZM35.99,33.11c.01-.02,0-.04,0-.05S36,33.02,36,33V31h2v2a16.835,16.835,0,0,1-3.03,9.66ZM4,33V31H6v2c0,.02.01.04.01.06s-.01.03,0,.05l1.02,9.55A16.835,16.835,0,0,1,4,33ZM44,5a1,1,0,0,1,2,0V49H44ZM42,52a1,1,0,0,1,1-1h4a1,1,0,0,1,1,1v2H42ZM29,28h5v4H29ZM13,28H27v7H21a1,1,0,0,0,0,2h6v1H13Zm0,12H27v2H13ZM8,28h3v4H8ZM9.33,45.33,8.11,34H11v9a1,1,0,0,0,1,1H28a1,1,0,0,0,1-1V34h4.89L32.67,45.33a16.916,16.916,0,0,1-23.34,0ZM28.18,60H10.9L9.63,48.19a18.87,18.87,0,0,0,22.74,0L31.74,54H31a3.009,3.009,0,0,0-3,3v2A3,3,0,0,0,28.18,60ZM60,59a1,1,0,0,1-1,1H31a1,1,0,0,1-1-1V57a1,1,0,0,1,1-1H59a1,1,0,0,1,1,1Z"/><path d="M57,57H33a1,1,0,0,0,0,2H57a1,1,0,0,0,0-2Z"/><path d="M16,37h1a1,1,0,0,0,0-2H16a1,1,0,0,0,0,2Z"/></g></svg>
