<svg xmlns="http://www.w3.org/2000/svg" xmlns:xlink="http://www.w3.org/1999/xlink" version="1.1" x="0px" y="0px" fill="#777" viewBox="0 0 100 100" style="enable-background:new 0 0 100 100;" xml:space="preserve"><g><path d="M85.6,91.1V38.9h3.1V33h-3.1V18.8C85.6,10.1,78.5,3,69.7,3H48.4c-8.7,0-15.8,7.1-15.8,15.8v11.7h-2.3   c-8.2,0-14.8,6.7-14.8,14.8v13.8V60c-0.7-0.2-1.4-0.3-2.1-0.3c-4.4,0-8,3.6-8,8v8.1c0,4.5,3.7,8.2,8.2,8.2h2v3.2h40.2v-3.2h2   c4.5,0,8.2-3.7,8.2-8.2v-8.1c0-4.4-3.6-8-8-8c-0.7,0-1.5,0.1-2.1,0.3v-0.8V45.4c0-8.2-6.7-14.8-14.8-14.8h-2.3V18.8   c0-5.5,4.5-9.9,9.9-9.9h21.3c5.5,0,9.9,4.5,9.9,9.9V33h-3.3v5.9h3.3v52.2h-9V97h24v-5.9H85.6z M13.5,78.2c-1.3,0-2.3-1-2.3-2.3   v-8.1c0-1.2,1-2.1,2.1-2.1s2.1,1,2.1,2.1v3v7.5L13.5,78.2L13.5,78.2z M21.4,78.2v-7.5v-3v-2.7h28.4v13.1v3.2H21.4V78.2z M55.7,67.8   c0-1.2,1-2.1,2.1-2.1s2.1,1,2.1,2.1v8.1c0,1.3-1,2.3-2.3,2.3h-2v-7.5h0V67.8z M40.8,36.5c4.9,0,8.9,4,8.9,8.9v13.8H21.4V45.4   c0-4.9,4-8.9,8.9-8.9h2.3v5.4h5.9v-5.4H40.8z"/><rect x="32.6" y="44.9" width="6" height="6"/></g></svg>