<svg xmlns="http://www.w3.org/2000/svg" fill="#777" xmlns:xlink="http://www.w3.org/1999/xlink" version="1.1" x="0px" y="0px" viewBox="0 0 90 90" style="enable-background:new 0 0 90 90;" xml:space="preserve"><path d="M28.2063007,33.5946922c-0.1973896,1.3464012,0.031168,2.657486,0.7528515,3.7559395  c1.0769844,1.6386833,3.0231781,2.4566383,5.2145462,2.4233932c-1.9884377,1.9759712-2.7377911,3.8348961-2.5355892,5.9542389  l18.2519588-11.9728928c-1.8713913-1.0375061-3.8806114-1.0901451-6.493042-0.044323  c0.8996429-1.9981384,0.9204216-4.109169-0.1565628-5.7478485c-0.7223778-1.0984554-1.8353767-1.8277588-3.1506157-2.1802883  c1.356102-4.4139099-1.0901451-7.6268578-1.2092705-7.7778435c-0.3892403-0.4979763-1.1123085-0.5824718-1.6026649-0.198082  c-0.5000534,0.3857746-0.5914764,1.1060734-0.2077789,1.6075134c0.0879593,0.1156635,1.9641991,2.6547165,0.6690483,6.137085  c-1.6850853,0.0824184-3.4955292,0.6551952-5.1598358,1.7494946c-1.6649971,1.0943012-2.9088993,2.5293579-3.6527462,4.0433693  c-3.7101955-0.1918488-5.2962379-2.9192867-5.3683033-3.048111c-0.3047428-0.5519981-0.9980297-0.755621-1.5527992-0.4529572  c-0.5797024,0.2874279-0.7632389,0.9994164-0.4591904,1.556263C21.6370373,29.5686359,23.6150875,33.0897903,28.2063007,33.5946922z  "/><path d="M64.5793152,43.1725883c0.3656921,0.4868927,1.0444336,0.5997887,1.5465622,0.2694206  c0.0207825-0.0131607,0.040863-0.0277061,0.0609512-0.0422516c0.5055923-0.3809242,0.6081009-1.1005325,0.2264786-1.6075096  c-1.2245102-1.6289864-2.5141182-2.7973938-3.85429-3.5266953l-2.3368149,1.532711  C61.6898079,40.1501045,63.1504936,41.2714157,64.5793152,43.1725883z"/><path d="M24.3368073,40.141098c-0.230669-0.5893974-0.8955593-0.8809814-1.4870358-0.6503448  c-0.5817814,0.2320175-0.8816395,0.8976021-0.6510391,1.4869995c1.3706455,3.5079956,3.0307961,6.0685196,4.9478989,7.6968117  l2.0209923-1.3256264C27.3357449,46.043396,25.6887188,43.6019974,24.3368073,40.141098z"/><path d="M52.3390846,32.1492462l2.0230675-1.327013c-0.7285728-2.4143867-2.4233894-4.9645233-5.1120415-7.6261654  c-0.4501877-0.4453392-1.1746407-0.4384117-1.6234436,0.007618c-0.4460297,0.4515724-0.4425697,1.177412,0.007618,1.6234436  C50.2869263,27.4520645,51.8757362,29.9433289,52.3390846,32.1492462z"/><path d="M60.3877296,43.0333748c-1.0285034-0.2985077-1.9925957-0.3400612-2.8527985-0.2521019  c-0.1537552-0.2472572-0.2985077-0.4958992-0.4605751-0.7417717c-0.0277023-0.0429382-0.0533295-0.0803413-0.0816917-0.1225891  l-9.8653603,6.4709167l13.0013962,15.4656487c2.9061279-4.2109795,2.4407043-11.6044312-1.2840729-18.7928772  c0.301281,0.0318604,0.6129494,0.0907326,0.9336205,0.1856155c2.5438995,0.7542381,4.8273888,3.5550919,6.603199,8.1005936  c0.2306366,0.5900917,0.8955307,0.8809814,1.4870071,0.6503487c0.0754929-0.0290909,0.147522-0.0671844,0.2133179-0.1101227  c0.4426041-0.291584,0.6385727-0.8622818,0.437027-1.3768806C66.4375458,47.1834068,63.7017975,43.9946976,60.3877296,43.0333748z"/><path d="M36.3020439,55.489006c0.0318604,0.0491753,0.060257,0.0941925,0.0928459,0.1440582  c0.1613388,0.2458725,0.3324432,0.4778938,0.4986687,0.7168388c-0.4224854,0.7549286-0.7667389,1.6559944-0.901104,2.7191277  c-0.431488,3.4241905,1.4108162,7.2009125,5.4756584,11.2228088c0.3920059,0.3885498,0.9939079,0.4356461,1.4371681,0.1440582  c0.0657616-0.0429382,0.128788-0.0934982,0.1855812-0.1516724c0.4467239-0.4515762,0.4425659-1.1774139-0.0069275-1.6234436  c-3.4684792-3.4318085-5.1342049-6.6385269-4.8183823-9.2738495c0.0401688-0.3324471,0.110157-0.6420364,0.2001953-0.9315414  c5.1217041,6.2700653,11.7256355,9.6298447,16.7434502,8.631813l-9.0417938-18.0698051L36.3020439,55.489006z"/><path d="M32.9990578,57.6561356l-2.3063412,1.5119362c0.141983,1.3547173,0.6226444,2.8147049,1.4530659,4.3758163  c0.2985077,0.5603065,0.9931793,0.7715492,1.5527992,0.4751167c0.0332413-0.0180054,0.0637169-0.036705,0.0928078-0.0554047  c0.4896622-0.3220558,0.6621208-0.969635,0.382309-1.4973907C33.1909065,60.619751,32.8030548,59.0101585,32.9990578,57.6561356z"/><path d="M44.9989624,2.2623813c-23.5648556,0-42.7365799,19.1717262-42.7365799,42.7372704  c0,23.5662422,19.1717243,42.7379646,42.7365799,42.7379646c23.5662384,0,42.7386551-19.1717224,42.7386551-42.7379646  C87.7376175,21.4341068,68.5652008,2.2623813,44.9989624,2.2623813z M44.9989624,8.6924343  c11.0302696,0,20.9087524,4.9603662,27.5735931,12.7492905L12.4116707,60.9044075  c-2.3575935-4.8107643-3.7192354-10.195694-3.7192354-15.9047546C8.6924353,24.9801922,24.9801941,8.6924343,44.9989624,8.6924343z   M44.9989624,81.3075638c-12.008213,0-22.6429768-5.8856735-29.255909-14.8977203l60.5556602-39.7217102  c3.1623917,5.383543,5.0088501,11.6293659,5.0088501,18.3115215C81.3075638,65.0198059,65.0191116,81.3075638,44.9989624,81.3075638  z"/></svg>